# xmcd CD database file
#
# Track frame offsets:
#	150
#	14514
#	44710
#	65424
#	94007
#	124217
#	137211
#	165970
#	199333
#	224528
#
# Disc length: 3268 seconds
#
# Revision: 0
# Processed by: cddbd v1.5.2PL0 Copyright (c) Steve Scherf et al.
# Submitted via: CDex 1.77
#
DISCID=970cc20a
DTITLE=Musica Jazz (Magazine) - Rava Fasoli D'Andrea - Icon
DYEAR=1996
DGENRE=Jazz
TTITLE0=On Cue (Fasoli)
TTITLE1=Apples (D'Andrea)
TTITLE2=Two Colors (D'Andrea)
TTITLE3=Icon (Fasoli)
TTITLE4=L'Age Mur (Rava)
TTITLE5=Esteem (Fasoli)
TTITLE6=Evening (Fasoli)
TTITLE7=Theme for Jessica (Rava)
TTITLE8=Monti Pallidi (D'Andrea)
TTITLE9=Alua (Fasoli)
EXTD=YEAR: 1996
EXTT0=
EXTT1=
EXTT2=
EXTT3=
EXTT4=
EXTT5=
EXTT6=
EXTT7=
EXTT8=
EXTT9=
PLAYORDER=
